<svg id="Layer_1" data-name="Layer 1" xmlns="http://www.w3.org/2000/svg" viewBox="0 0 86.4 68.62"><defs><style>.cls-1{fill:#06a64f;}.cls-2{fill:#078241;}.cls-3{fill:#fff;}</style></defs><path class="cls-1" d="M263.36,429.47h0a76.93,76.93,0,0,1,85.7-66.9h0A76.8,76.8,0,0,1,263.36,429.47Z" transform="translate(-262.66 -361.99)"/><path class="cls-2" d="M263.36,429.47h0a62.34,62.34,0,0,1,69.5-54.2h0A62.31,62.31,0,0,1,263.36,429.47Z" transform="translate(-262.66 -361.99)"/><path class="cls-3" d="M262.66,430.37h0a31.14,31.14,0,0,1,34.7-27.1h0A31.14,31.14,0,0,1,262.66,430.37Z" transform="translate(-262.66 -361.99)"/></svg>